<?xml version="1.0" encoding="UTF-8"?>
<svg version="1.1" xmlns="http://www.w3.org/2000/svg" width="500" height="500">
<path d="M0 0 C165 0 330 0 500 0 C500 165 500 330 500 500 C335 500 170 500 0 500 C0 335 0 170 0 0 Z " fill="#FEFEFE" transform="translate(0,0)"/>
<path d="M0 0 C1.63472663 1.51037342 3.25989591 3.03116144 4.875 4.5625 C5.66003906 5.30628906 6.44507813 6.05007812 7.25390625 6.81640625 C12.29603578 11.72203143 16.70903448 16.89625107 20.875 22.5625 C17.60954216 26.74636785 14.14767945 30.20275651 10.11328125 33.64453125 C7.66294587 35.74420782 5.26782427 37.89756376 2.875 40.0625 C-0.08369751 42.73298344 -3.05426472 45.38548058 -6.0625 48 C-9.29059512 50.81072525 -12.46238443 53.678299 -15.625 56.5625 C-19.40498109 60.00971797 -23.21088413 63.41736691 -27.08203125 66.76171875 C-28.64201895 68.13677483 -30.17660601 69.54070104 -31.69921875 70.95703125 C-32.58222656 71.77558594 -33.46523437 72.59414062 -34.375 73.4375 C-35.18453125 74.19804687 -35.9940625 74.95859375 -36.828125 75.7421875 C-39.04351206 77.49791942 -40.36620956 78.17019494 -43.125 78.5625 C-43.71667969 77.89863281 -44.30835938 77.23476562 -44.91796875 76.55078125 C-50.84434032 69.88703452 -50.84434032 69.88703452 -57.125 63.5625 C-57.6096875 63.09457031 -58.094375 62.62664062 -58.59375 62.14453125 C-70.32840195 51.37854161 -84.34351934 47.67516609 -99.94140625 48.21875 C-111.45400239 48.95387587 -122.24444127 53.67188903 -130.41015625 61.8515625 C-139.54862092 72.6127452 -143.52570331 84.73220238 -143.4375 98.6875 C-143.43258545 99.60893799 -143.4276709 100.53037598 -143.42260742 101.47973633 C-143.15841599 117.00470869 -139.42365677 129.84785346 -128.58203125 141.30078125 C-119.34805245 149.80073948 -108.79075597 153.13863026 -96.4375 153 C-95.47215332 152.99097656 -94.50680664 152.98195313 -93.51220703 152.97265625 C-75.98384748 152.55092128 -63.429431 145.64784262 -51.328125 133.0390625 C-48.36106809 129.70375384 -45.6525144 126.24075266 -43.125 122.5625 C-39.20144963 124.17862908 -36.41105335 126.8758181 -33.375 129.75 C-32.30011738 130.75198716 -31.22459648 131.75329005 -30.1484375 132.75390625 C-29.62862305 133.23875488 -29.10880859 133.72360352 -28.57324219 134.22314453 C-26.13565013 136.47746517 -23.62524527 138.64527485 -21.1171875 140.8203125 C-18.76479365 142.87750399 -16.44465034 144.96846915 -14.125 147.0625 C-11.14437279 149.75233431 -8.15254767 152.42560364 -5.125 155.0625 C-1.23891685 158.44715307 2.58531503 161.89800787 6.41015625 165.3515625 C9.30780687 167.95072296 12.23863531 170.50935808 15.18359375 173.0546875 C15.74175781 173.55226563 16.29992187 174.04984375 16.875 174.5625 C17.75865234 175.27792969 17.75865234 175.27792969 18.66015625 176.0078125 C19.875 177.5625 19.875 177.5625 19.8828125 179.35546875 C18.38509062 182.63536356 16.10358569 185.18546456 13.75 187.875 C13.24645996 188.45677002 12.74291992 189.03854004 12.22412109 189.63793945 C10.78484929 191.28905913 9.3334894 192.92835312 7.875 194.5625 C7.27171875 195.24054688 6.6684375 195.91859375 6.046875 196.6171875 C-15.39702823 219.25241869 -49.70061088 233.25799413 -80.46931458 234.67008972 C-82.91742896 234.72575212 -85.36378421 234.75324768 -87.8125 234.765625 C-88.71387695 234.77132507 -89.61525391 234.77702515 -90.54394531 234.78289795 C-92.44318491 234.79228754 -94.34244036 234.79885768 -96.24169922 234.80273438 C-99.08982216 234.81238085 -101.93720378 234.84343828 -104.78515625 234.875 C-128.05639866 235.01018753 -149.37359822 230.1318199 -170.125 219.5625 C-171.24777344 219.005625 -172.37054688 218.44875 -173.52734375 217.875 C-204.4251976 202.00356973 -226.07445928 174.74943864 -236.63891602 142.08544922 C-247.14525116 108.07074753 -244.65032392 69.29468098 -228.125 37.5625 C-223.30028993 28.96481794 -217.51603474 21.0601536 -211.125 13.5625 C-210.46242188 12.75425781 -209.79984375 11.94601563 -209.1171875 11.11328125 C-187.44079883 -14.36247443 -152.19708069 -30.24855634 -119.18359375 -33.1640625 C-76.16071527 -35.99202646 -33.25120055 -29.38122928 0 0 Z " fill="#00B4D8" transform="translate(268.125,148.4375)"/>
<path d="M0 0 C1.06025391 -0.01224609 2.12050781 -0.02449219 3.21289062 -0.03710938 C13.88634776 -0.05662209 23.82878469 1.2938371 33.75 5.3125 C34.51723389 5.61961914 35.28446777 5.92673828 36.07495117 6.24316406 C60.41833467 16.31488645 77.2246914 34.38487539 87.8125 58.1875 C92.13344078 69.46730397 92.99310946 79.97552669 93 91.9375 C93.01224609 93.0409375 93.02449219 94.144375 93.03710938 95.28125 C93.07614055 117.45095683 85.10551432 136.36084924 70.8125 153.1875 C70.03777344 154.16332031 69.26304687 155.13914062 68.46484375 156.14453125 C55.89459296 171.19106647 34.40840379 181.91931505 15.08276367 184.01977539 C-12.15785144 186.03228239 -36.32934854 181.63191309 -57.86328125 163.99609375 C-76.0038357 148.16784063 -89.20344999 126.59510979 -91.1875 102.1875 C-92.67943416 72.66306277 -84.90351245 49.39659736 -65.35546875 27.09765625 C-48.29665341 8.96144205 -24.50495072 0.01462982 0 0 Z " fill="#00B4D8" transform="translate(381.1875,157.8125)"/>
</svg>
