<svg width="195" height="256" viewBox="0 0 195 256" fill="none" xmlns="http://www.w3.org/2000/svg">
<path d="M0 14.4972V22.3799L44.29 0H28.6899L0 14.4972Z" fill="#8F78F3" fill-opacity="0.27"/>
<path d="M70.9087 0L0 35.8305V43.7133L86.5087 0H70.9087Z" fill="#8F78F3" fill-opacity="0.27"/>
<path d="M113.127 0L0 57.1638V65.0466L128.727 0H113.127Z" fill="#8F78F3" fill-opacity="0.27"/>
<path d="M155.346 0L0 78.4972V86.3799L170.946 0H155.346Z" fill="#8F78F3" fill-opacity="0.27"/>
<path d="M195 1.29606L0 99.8305V107.713L195 9.17881V1.29606Z" fill="#8F78F3" fill-opacity="0.27"/>
<path d="M195 22.6294L0 121.164V129.047L195 30.5121V22.6294Z" fill="#8F78F3" fill-opacity="0.27"/>
<path d="M195 43.9627L0 142.497V150.38L195 51.8455V43.9627Z" fill="#8F78F3" fill-opacity="0.27"/>
<path d="M195 65.2961L0 163.831V171.713L195 73.1788V65.2961Z" fill="#8F78F3" fill-opacity="0.27"/>
<path d="M195 86.6294L0 185.164V193.047L195 94.5122V86.6294Z" fill="#8F78F3" fill-opacity="0.27"/>
<path d="M195 107.963L0 206.497V214.38L195 115.845V107.963Z" fill="#8F78F3" fill-opacity="0.27"/>
<path d="M195 129.296L0 227.831V235.713L195 137.179V129.296Z" fill="#8F78F3" fill-opacity="0.27"/>
<path d="M195 150.629L0 249.164V256H2.0712L195 158.512V150.629Z" fill="#8F78F3" fill-opacity="0.27"/>
<path d="M195 171.963L28.69 256H44.2899L195 179.845V171.963Z" fill="#8F78F3" fill-opacity="0.27"/>
<path d="M195 193.296L70.9087 256H86.5087L195 201.179V193.296Z" fill="#8F78F3" fill-opacity="0.27"/>
<path d="M195 214.629L113.127 256H128.727L195 222.512V214.629Z" fill="#8F78F3" fill-opacity="0.27"/>
<path d="M195 235.963L155.346 256H170.946L195 243.846V235.963Z" fill="#8F78F3" fill-opacity="0.27"/>
</svg>
