<svg width="178" height="58" viewBox="0 0 178 58" fill="none" xmlns="http://www.w3.org/2000/svg">
<path fill-rule="evenodd" clip-rule="evenodd" d="M168.375 4.19106C168.528 6.22545 170.158 7.76105 172.015 7.62091C173.871 7.48077 175.252 5.71797 175.099 3.68359C174.945 1.6492 173.315 0.113603 171.459 0.253739C169.602 0.393875 168.221 2.15667 168.375 4.19106ZM134.755 6.72845C134.909 8.76284 136.539 10.2984 138.395 10.1583C140.252 10.0182 141.633 8.25536 141.479 6.22097C141.326 4.18658 139.696 2.65099 137.839 2.79113C135.983 2.93126 134.602 4.69406 134.755 6.72845ZM104.776 12.6957C102.919 12.8358 101.29 11.3002 101.136 9.26584C100.982 7.23145 102.363 5.46865 104.22 5.32851C106.077 5.18838 107.706 6.72397 107.86 8.75836C108.013 10.7927 106.633 12.5555 104.776 12.6957ZM67.5167 11.8032C67.6702 13.8376 69.2999 15.3732 71.1566 15.2331C73.0134 15.0929 74.3941 13.3301 74.2405 11.2957C74.087 9.26136 72.4573 7.72577 70.6006 7.8659C68.7438 8.00604 67.3631 9.76884 67.5167 11.8032ZM37.5373 17.7705C35.6805 17.9106 34.0509 16.375 33.8973 14.3406C33.7438 12.3062 35.1245 10.5434 36.9812 10.4033C38.838 10.2632 40.4677 11.7987 40.6212 13.8331C40.7748 15.8675 39.394 17.6303 37.5373 17.7705ZM0.278002 16.878C0.431545 18.9124 2.06121 20.448 3.91795 20.3078C5.77469 20.1677 7.1554 18.4049 7.00186 16.3705C6.84832 14.3361 5.21866 12.8005 3.36192 12.9407C1.50518 13.0808 0.124458 14.8436 0.278002 16.878ZM174.795 44.4568C172.938 44.5969 171.308 43.0613 171.155 41.0269C171.001 38.9925 172.382 37.2297 174.239 37.0896C176.096 36.9495 177.725 38.485 177.879 40.5194C178.032 42.5538 176.652 44.3166 174.795 44.4568ZM137.536 43.5643C137.689 45.5987 139.319 47.1343 141.175 46.9941C143.032 46.854 144.413 45.0912 144.259 43.0568C144.106 41.0224 142.476 39.4868 140.619 39.627C138.763 39.7671 137.382 41.5299 137.536 43.5643ZM107.556 49.5315C105.699 49.6717 104.07 48.1361 103.916 46.1017C103.763 44.0673 105.143 42.3045 107 42.1644C108.857 42.0242 110.486 43.5598 110.64 45.5942C110.794 47.6286 109.413 49.3914 107.556 49.5315ZM70.2968 48.6391C70.4504 50.6735 72.08 52.2091 73.9368 52.0689C75.7935 51.9288 77.1742 50.166 77.0207 48.1316C76.8672 46.0972 75.2375 44.5616 73.3807 44.7018C71.524 44.8419 70.1433 46.6047 70.2968 48.6391ZM40.3174 54.6063C38.4607 54.7464 36.831 53.2109 36.6775 51.1765C36.5239 49.1421 37.9047 47.3793 39.7614 47.2391C41.6181 47.099 43.2478 48.6346 43.4014 50.669C43.5549 52.7034 42.1742 54.4662 40.3174 54.6063ZM3.05815 53.7139C3.2117 55.7482 4.84136 57.2838 6.6981 57.1437C8.55485 57.0036 9.93555 55.2408 9.78201 53.2064C9.62847 51.172 7.99882 49.6364 6.14207 49.7765C4.28533 49.9167 2.90461 51.6795 3.05815 53.7139Z" fill="#9880FF" fill-opacity="0.36"/>
</svg>
